<svg width="1804" height="1419" viewBox="0 0 1804 1419" fill="none" xmlns="http://www.w3.org/2000/svg">
<path d="M1384.64 547.931L1275.65 524.222C1266.17 495.186 1254.44 466.865 1240.58 439.583L1300.91 345.667C1311.69 328.886 1309.32 306.855 1295.23 292.76L1125.45 122.855C1111.36 108.759 1089.35 106.388 1072.58 117.171L978.726 177.548C951.464 163.68 923.163 151.934 894.147 142.45L870.455 33.3877C866.225 13.9007 848.98 0 829.053 0H588.947C569.02 0 551.775 13.9007 547.545 33.3877L523.853 142.45C494.837 151.934 466.536 163.68 439.274 177.548L345.423 117.171C328.655 106.388 306.639 108.759 292.553 122.855L122.768 292.76C108.682 306.855 106.313 328.886 117.088 345.667L177.423 439.583C163.565 466.865 151.827 495.186 142.35 524.222L33.3642 547.931C13.8909 552.175 0 569.421 0 589.363V829.637C0 849.579 13.8909 866.825 33.3642 871.069L142.35 894.778C151.827 923.814 163.565 952.135 177.423 979.417L117.088 1073.33C106.313 1090.11 108.682 1112.14 122.768 1126.24L292.553 1296.15C306.639 1310.24 328.655 1312.61 345.423 1301.83L439.274 1241.45C466.536 1255.32 494.837 1267.07 523.853 1276.55L547.545 1385.61C551.775 1405.1 569.02 1419 588.947 1419H829.053C848.98 1419 866.225 1405.1 870.455 1385.61L894.147 1276.55C923.163 1267.07 951.464 1255.32 978.726 1241.45L1072.58 1301.83C1089.35 1312.61 1111.36 1310.25 1125.45 1296.15L1295.23 1126.24C1309.32 1112.14 1311.69 1090.11 1300.91 1073.33L1240.58 979.417C1254.44 952.135 1266.17 923.814 1275.65 894.778L1384.64 871.069C1404.11 866.825 1418 849.579 1418 829.637V589.363C1418 569.421 1404.11 552.175 1384.64 547.931V547.931ZM963.223 709.5C963.223 849.774 849.175 963.903 709 963.903C568.825 963.903 454.777 849.774 454.777 709.5C454.777 569.226 568.825 455.097 709 455.097C849.175 455.097 963.223 569.226 963.223 709.5V709.5Z" fill="#FFF8F4"/>
<path d="M1573.64 547.931L1464.65 524.222C1455.17 495.186 1443.44 466.865 1429.58 439.583L1489.91 345.667C1500.69 328.886 1498.32 306.855 1484.23 292.76L1314.45 122.855C1300.36 108.759 1278.35 106.388 1261.58 117.171L1167.73 177.548C1140.46 163.68 1112.16 151.934 1083.15 142.45L1059.46 33.3877C1055.22 13.9007 1037.98 0 1018.05 0H777.947C758.02 0 740.775 13.9007 736.545 33.3877L712.853 142.45C683.837 151.934 655.536 163.68 628.274 177.548L534.423 117.171C517.655 106.388 495.639 108.759 481.553 122.855L311.768 292.76C297.682 306.855 295.313 328.886 306.088 345.667L366.423 439.583C352.565 466.865 340.827 495.186 331.35 524.222L222.364 547.931C202.891 552.175 189 569.421 189 589.363V829.637C189 849.579 202.891 866.825 222.364 871.069L331.35 894.778C340.827 923.814 352.565 952.135 366.423 979.417L306.088 1073.33C295.313 1090.11 297.682 1112.14 311.768 1126.24L481.553 1296.15C495.639 1310.24 517.655 1312.61 534.423 1301.83L628.274 1241.45C655.536 1255.32 683.837 1267.07 712.853 1276.55L736.545 1385.61C740.775 1405.1 758.02 1419 777.947 1419H1018.05C1037.98 1419 1055.22 1405.1 1059.46 1385.61L1083.15 1276.55C1112.16 1267.07 1140.46 1255.32 1167.73 1241.45L1261.58 1301.83C1278.35 1312.61 1300.36 1310.25 1314.45 1296.15L1484.23 1126.24C1498.32 1112.14 1500.69 1090.11 1489.91 1073.33L1429.58 979.417C1443.44 952.135 1455.17 923.814 1464.65 894.778L1573.64 871.069C1593.11 866.825 1607 849.579 1607 829.637V589.363C1607 569.421 1593.11 552.175 1573.64 547.931V547.931ZM1152.22 709.5C1152.22 849.774 1038.18 963.903 898 963.903C757.825 963.903 643.777 849.774 643.777 709.5C643.777 569.226 757.825 455.097 898 455.097C1038.18 455.097 1152.22 569.226 1152.22 709.5V709.5Z" fill="white"/>
<path d="M1770.64 547.931L1661.65 524.222C1652.17 495.186 1640.44 466.865 1626.58 439.583L1686.91 345.667C1697.69 328.886 1695.32 306.855 1681.23 292.76L1511.45 122.855C1497.36 108.759 1475.35 106.388 1458.58 117.171L1364.73 177.548C1337.46 163.68 1309.16 151.934 1280.15 142.45L1256.46 33.3877C1252.22 13.9007 1234.98 0 1215.05 0H974.947C955.02 0 937.775 13.9007 933.545 33.3877L909.853 142.45C880.837 151.934 852.536 163.68 825.274 177.548L731.423 117.171C714.655 106.388 692.639 108.759 678.553 122.855L508.768 292.76C494.682 306.855 492.313 328.886 503.088 345.667L563.423 439.583C549.565 466.865 537.827 495.186 528.35 524.222L419.364 547.931C399.891 552.175 386 569.421 386 589.363V829.637C386 849.579 399.891 866.825 419.364 871.069L528.35 894.778C537.827 923.814 549.565 952.135 563.423 979.417L503.088 1073.33C492.313 1090.11 494.682 1112.14 508.768 1126.24L678.553 1296.15C692.639 1310.24 714.655 1312.61 731.423 1301.83L825.274 1241.45C852.536 1255.32 880.837 1267.07 909.853 1276.55L933.545 1385.61C937.775 1405.1 955.02 1419 974.947 1419H1215.05C1234.98 1419 1252.22 1405.1 1256.46 1385.61L1280.15 1276.55C1309.16 1267.07 1337.46 1255.32 1364.73 1241.45L1458.58 1301.83C1475.35 1312.61 1497.36 1310.25 1511.45 1296.15L1681.23 1126.24C1695.32 1112.14 1697.69 1090.11 1686.91 1073.33L1626.58 979.417C1640.44 952.135 1652.17 923.814 1661.65 894.778L1770.64 871.069C1790.11 866.825 1804 849.579 1804 829.637V589.363C1804 569.421 1790.11 552.175 1770.64 547.931V547.931ZM1349.22 709.5C1349.22 849.774 1235.18 963.903 1095 963.903C954.825 963.903 840.777 849.774 840.777 709.5C840.777 569.226 954.825 455.097 1095 455.097C1235.18 455.097 1349.22 569.226 1349.22 709.5V709.5Z" fill="#FF7435"/>
</svg>
