<svg width="335" height="50" viewBox="0 0 335 50" fill="none" xmlns="http://www.w3.org/2000/svg">
<path d="M81.44 17.768C81.504 17.9067 81.536 18.0453 81.536 18.184C81.536 18.4293 81.4347 18.6373 81.232 18.808C81.04 18.9787 80.816 19.064 80.56 19.064C80.3893 19.064 80.2293 19.0213 80.08 18.936C79.9307 18.84 79.8133 18.696 79.728 18.504L78.768 16.36H73.136L72.176 18.504C72.0907 18.696 71.9733 18.84 71.824 18.936C71.6747 19.0213 71.5093 19.064 71.328 19.064C71.0827 19.064 70.8587 18.9787 70.656 18.808C70.4533 18.6373 70.352 18.4293 70.352 18.184C70.352 18.0453 70.384 17.9067 70.448 17.768L74.864 8.28C74.96 8.06667 75.104 7.90667 75.296 7.8C75.4987 7.68267 75.712 7.624 75.936 7.624C76.16 7.624 76.368 7.68267 76.56 7.8C76.7627 7.90667 76.912 8.06667 77.008 8.28L81.44 17.768ZM73.84 14.76H78.064L75.952 10.008L73.84 14.76ZM87.491 14.712C87.8643 14.8507 88.163 15.0373 88.387 15.272C88.6217 15.5067 88.8937 15.9013 89.203 16.456L89.907 17.672C90.003 17.8427 90.051 18.008 90.051 18.168C90.051 18.424 89.9497 18.6427 89.747 18.824C89.555 18.9947 89.3257 19.08 89.059 19.08C88.6963 19.08 88.419 18.9093 88.227 18.568L87.219 16.776C86.995 16.4027 86.7763 16.1413 86.563 15.992C86.3497 15.8427 86.0403 15.768 85.635 15.768H85.011V18.136C85.011 18.4347 84.9203 18.6693 84.739 18.84C84.5577 19.0107 84.3123 19.096 84.003 19.096C83.6937 19.096 83.4483 19.0107 83.267 18.84C83.0963 18.6693 83.011 18.4347 83.011 18.136V11.96C83.011 11.672 83.1017 11.4427 83.283 11.272C83.4643 11.1013 83.7043 11.016 84.003 11.016C84.3123 11.016 84.5577 11.1013 84.739 11.272C84.9203 11.4427 85.011 11.672 85.011 11.96V14.28H85.731L88.019 11.432C88.2323 11.1547 88.483 11.016 88.771 11.016C88.995 11.016 89.187 11.096 89.347 11.256C89.507 11.416 89.587 11.608 89.587 11.832C89.587 12.056 89.5017 12.2747 89.331 12.488L87.491 14.712ZM95.0414 10.984C96.1294 10.984 96.9347 11.256 97.4574 11.8C97.9907 12.3333 98.2574 13.1493 98.2574 14.248V18.152C98.2574 18.44 98.172 18.6693 98.0014 18.84C97.8307 19 97.596 19.08 97.2974 19.08C97.02 19.08 96.7907 18.9947 96.6094 18.824C96.4387 18.6533 96.3534 18.4293 96.3534 18.152V17.8C96.172 18.216 95.884 18.5413 95.4894 18.776C95.1054 19.0107 94.6574 19.128 94.1454 19.128C93.6227 19.128 93.148 19.0213 92.7214 18.808C92.2947 18.5947 91.9587 18.3013 91.7134 17.928C91.468 17.5547 91.3454 17.1387 91.3454 16.68C91.3454 16.104 91.4894 15.6507 91.7774 15.32C92.076 14.9893 92.556 14.7493 93.2174 14.6C93.8787 14.4507 94.7907 14.376 95.9534 14.376H96.3534V14.008C96.3534 13.4853 96.2414 13.1067 96.0174 12.872C95.7934 12.6267 95.4307 12.504 94.9294 12.504C94.62 12.504 94.3054 12.552 93.9854 12.648C93.6654 12.7333 93.2867 12.8613 92.8494 13.032C92.572 13.1707 92.3694 13.24 92.2414 13.24C92.0494 13.24 91.8894 13.1707 91.7614 13.032C91.644 12.8933 91.5854 12.712 91.5854 12.488C91.5854 12.3067 91.628 12.152 91.7134 12.024C91.8094 11.8853 91.964 11.7573 92.1774 11.64C92.5507 11.4373 92.9934 11.2773 93.5054 11.16C94.028 11.0427 94.54 10.984 95.0414 10.984ZM94.5454 17.688C95.0787 17.688 95.5107 17.512 95.8414 17.16C96.1827 16.7973 96.3534 16.3333 96.3534 15.768V15.432H96.0654C95.3507 15.432 94.796 15.464 94.4014 15.528C94.0067 15.592 93.724 15.704 93.5534 15.864C93.3827 16.024 93.2974 16.2427 93.2974 16.52C93.2974 16.8613 93.4147 17.144 93.6494 17.368C93.8947 17.5813 94.1934 17.688 94.5454 17.688ZM100.322 21.128C100.045 21.128 99.8207 21.0427 99.65 20.872C99.49 20.712 99.41 20.4827 99.41 20.184V18.504C99.3993 18.1947 99.4793 17.9493 99.65 17.768C99.8207 17.5867 100.045 17.496 100.322 17.496H100.498C100.807 16.9413 101.021 16.3173 101.138 15.624C101.266 14.9307 101.33 14.1093 101.33 13.16V12.184C101.319 11.8747 101.399 11.6293 101.57 11.448C101.741 11.2667 101.975 11.176 102.274 11.176H106.226C106.535 11.1653 106.781 11.2453 106.962 11.416C107.143 11.5867 107.234 11.8213 107.234 12.12V17.496H107.49C107.799 17.4853 108.045 17.5653 108.226 17.736C108.407 17.9067 108.498 18.1413 108.498 18.44V20.184C108.498 20.4827 108.413 20.712 108.242 20.872C108.082 21.0427 107.863 21.128 107.586 21.128C107.298 21.128 107.074 21.0427 106.914 20.872C106.754 20.712 106.674 20.4827 106.674 20.184V19H101.25V20.184C101.25 20.4827 101.165 20.712 100.994 20.872C100.834 21.0427 100.61 21.128 100.322 21.128ZM105.25 12.68H103.058V13.16C103.058 14.1733 102.978 15.0533 102.818 15.8C102.669 16.5467 102.455 17.112 102.178 17.496H105.25V12.68ZM115.857 16.856C116.038 16.856 116.182 16.9253 116.289 17.064C116.406 17.2027 116.465 17.3893 116.465 17.624C116.465 17.9547 116.268 18.232 115.873 18.456C115.51 18.6587 115.1 18.824 114.641 18.952C114.182 19.0693 113.745 19.128 113.329 19.128C112.07 19.128 111.073 18.7653 110.337 18.04C109.601 17.3147 109.233 16.3227 109.233 15.064C109.233 14.264 109.393 13.5547 109.713 12.936C110.033 12.3173 110.481 11.8373 111.057 11.496C111.644 11.1547 112.305 10.984 113.041 10.984C113.745 10.984 114.358 11.1387 114.881 11.448C115.404 11.7573 115.809 12.1947 116.097 12.76C116.385 13.3253 116.529 13.992 116.529 14.76C116.529 15.2187 116.326 15.448 115.921 15.448H111.201C111.265 16.184 111.473 16.728 111.825 17.08C112.177 17.4213 112.689 17.592 113.361 17.592C113.702 17.592 114.001 17.5493 114.257 17.464C114.524 17.3787 114.822 17.2613 115.153 17.112C115.473 16.9413 115.708 16.856 115.857 16.856ZM113.089 12.392C112.545 12.392 112.108 12.5627 111.777 12.904C111.457 13.2453 111.265 13.736 111.201 14.376H114.817C114.796 13.7253 114.636 13.2347 114.337 12.904C114.038 12.5627 113.622 12.392 113.089 12.392ZM125.797 11.016C126.106 11.016 126.352 11.1013 126.533 11.272C126.714 11.4427 126.805 11.672 126.805 11.96V18.168C126.805 18.4347 126.72 18.6587 126.549 18.84C126.378 19.0107 126.16 19.096 125.893 19.096C125.626 19.096 125.402 19.0107 125.221 18.84C125.05 18.6587 124.965 18.4347 124.965 18.168L124.981 14.136L123.381 17.112C123.285 17.2827 123.157 17.4213 122.997 17.528C122.837 17.624 122.661 17.672 122.469 17.672C122.064 17.672 121.754 17.4853 121.541 17.112L119.941 14.136L119.957 18.168C119.957 18.4347 119.866 18.6587 119.685 18.84C119.514 19.0107 119.296 19.096 119.029 19.096C118.762 19.096 118.544 19.0107 118.373 18.84C118.202 18.6587 118.117 18.4347 118.117 18.168V12.024C118.117 11.7147 118.197 11.4693 118.357 11.288C118.528 11.1067 118.762 11.016 119.061 11.016C119.349 11.016 119.589 11.064 119.781 11.16C119.973 11.2453 120.144 11.432 120.293 11.72L122.469 15.832L124.565 11.848C124.736 11.5387 124.906 11.3253 125.077 11.208C125.258 11.08 125.498 11.016 125.797 11.016ZM134.037 11.784C134.25 11.4853 134.442 11.2827 134.613 11.176C134.794 11.0693 135.04 11.016 135.349 11.016C135.658 11.016 135.904 11.1013 136.085 11.272C136.277 11.4427 136.373 11.672 136.373 11.96V18.12C136.373 18.408 136.282 18.6427 136.101 18.824C135.93 19.0053 135.706 19.096 135.429 19.096C135.141 19.096 134.906 19.0053 134.725 18.824C134.554 18.6427 134.469 18.408 134.469 18.12V13.608L131.077 18.36C130.874 18.648 130.677 18.8453 130.485 18.952C130.304 19.048 130.074 19.096 129.797 19.096C129.488 19.096 129.242 19.0107 129.061 18.84C128.88 18.6693 128.789 18.4347 128.789 18.136V11.976C128.789 11.688 128.874 11.4587 129.045 11.288C129.226 11.1067 129.461 11.016 129.749 11.016C130.026 11.016 130.25 11.1067 130.421 11.288C130.602 11.4587 130.693 11.688 130.693 11.976V16.456L134.037 11.784ZM144.095 19.096C143.786 19.096 143.541 19.0107 143.359 18.84C143.189 18.6693 143.103 18.4347 143.103 18.136V16.36H142.559C141.855 16.36 141.317 16.6427 140.943 17.208L139.855 18.744C139.631 19.064 139.343 19.224 138.991 19.224C138.746 19.224 138.527 19.1387 138.335 18.968C138.154 18.7973 138.063 18.5893 138.063 18.344C138.063 18.1307 138.122 17.9387 138.239 17.768L138.591 17.224C138.847 16.8293 139.125 16.4987 139.423 16.232C139.733 15.9653 140.042 15.7947 140.351 15.72C139.69 15.5707 139.194 15.3147 138.863 14.952C138.543 14.5787 138.383 14.12 138.383 13.576C138.383 12.8187 138.629 12.232 139.119 11.816C139.621 11.3893 140.309 11.176 141.183 11.176H144.095C144.394 11.1653 144.634 11.2453 144.815 11.416C144.997 11.5867 145.087 11.816 145.087 12.104V18.136C145.087 18.4347 144.997 18.6693 144.815 18.84C144.645 19.0107 144.405 19.096 144.095 19.096ZM143.103 12.568H141.663C141.205 12.568 140.853 12.664 140.607 12.856C140.373 13.0373 140.255 13.336 140.255 13.752C140.255 14.1893 140.389 14.504 140.655 14.696C140.933 14.888 141.274 14.984 141.679 14.984H143.103V12.568ZM156.918 11.592C157.003 11.4 157.115 11.2613 157.254 11.176C157.403 11.08 157.563 11.032 157.734 11.032C157.979 11.032 158.198 11.1173 158.39 11.288C158.593 11.448 158.694 11.6507 158.694 11.896C158.694 12.0133 158.662 12.136 158.598 12.264L154.23 21.416C154.049 21.7787 153.766 21.96 153.382 21.96C153.137 21.96 152.918 21.88 152.726 21.72C152.545 21.5707 152.454 21.3787 152.454 21.144C152.454 21.0267 152.486 20.8933 152.55 20.744L153.638 18.456L150.662 12.264C150.609 12.1573 150.582 12.0347 150.582 11.896C150.582 11.6507 150.683 11.4427 150.886 11.272C151.099 11.1013 151.339 11.016 151.606 11.016C151.787 11.016 151.953 11.064 152.102 11.16C152.251 11.2453 152.369 11.384 152.454 11.576L154.694 16.52L156.918 11.592ZM159.416 21.128C159.138 21.128 158.914 21.0427 158.744 20.872C158.584 20.712 158.504 20.4827 158.504 20.184V18.504C158.493 18.1947 158.573 17.9493 158.744 17.768C158.914 17.5867 159.138 17.496 159.416 17.496H159.592C159.901 16.9413 160.114 16.3173 160.232 15.624C160.36 14.9307 160.424 14.1093 160.424 13.16V12.184C160.413 11.8747 160.493 11.6293 160.664 11.448C160.834 11.2667 161.069 11.176 161.368 11.176H165.32C165.629 11.1653 165.874 11.2453 166.056 11.416C166.237 11.5867 166.328 11.8213 166.328 12.12V17.496H166.584C166.893 17.4853 167.138 17.5653 167.32 17.736C167.501 17.9067 167.592 18.1413 167.592 18.44V20.184C167.592 20.4827 167.506 20.712 167.336 20.872C167.176 21.0427 166.957 21.128 166.68 21.128C166.392 21.128 166.168 21.0427 166.008 20.872C165.848 20.712 165.768 20.4827 165.768 20.184V19H160.344V20.184C160.344 20.4827 160.258 20.712 160.088 20.872C159.928 21.0427 159.704 21.128 159.416 21.128ZM164.344 12.68H162.152V13.16C162.152 14.1733 162.072 15.0533 161.912 15.8C161.762 16.5467 161.549 17.112 161.272 17.496H164.344V12.68ZM172.354 10.984C173.442 10.984 174.247 11.256 174.77 11.8C175.303 12.3333 175.57 13.1493 175.57 14.248V18.152C175.57 18.44 175.485 18.6693 175.314 18.84C175.143 19 174.909 19.08 174.61 19.08C174.333 19.08 174.103 18.9947 173.922 18.824C173.751 18.6533 173.666 18.4293 173.666 18.152V17.8C173.485 18.216 173.197 18.5413 172.802 18.776C172.418 19.0107 171.97 19.128 171.458 19.128C170.935 19.128 170.461 19.0213 170.034 18.808C169.607 18.5947 169.271 18.3013 169.026 17.928C168.781 17.5547 168.658 17.1387 168.658 16.68C168.658 16.104 168.802 15.6507 169.09 15.32C169.389 14.9893 169.869 14.7493 170.53 14.6C171.191 14.4507 172.103 14.376 173.266 14.376H173.666V14.008C173.666 13.4853 173.554 13.1067 173.33 12.872C173.106 12.6267 172.743 12.504 172.242 12.504C171.933 12.504 171.618 12.552 171.298 12.648C170.978 12.7333 170.599 12.8613 170.162 13.032C169.885 13.1707 169.682 13.24 169.554 13.24C169.362 13.24 169.202 13.1707 169.074 13.032C168.957 12.8933 168.898 12.712 168.898 12.488C168.898 12.3067 168.941 12.152 169.026 12.024C169.122 11.8853 169.277 11.7573 169.49 11.64C169.863 11.4373 170.306 11.2773 170.818 11.16C171.341 11.0427 171.853 10.984 172.354 10.984ZM171.858 17.688C172.391 17.688 172.823 17.512 173.154 17.16C173.495 16.7973 173.666 16.3333 173.666 15.768V15.432H173.378C172.663 15.432 172.109 15.464 171.714 15.528C171.319 15.592 171.037 15.704 170.866 15.864C170.695 16.024 170.61 16.2427 170.61 16.52C170.61 16.8613 170.727 17.144 170.962 17.368C171.207 17.5813 171.506 17.688 171.858 17.688ZM180.355 13.48C180.355 15.112 180.152 16.36 179.747 17.224C179.341 18.0773 178.76 18.6853 178.003 19.048C177.885 19.1013 177.747 19.128 177.587 19.128C177.352 19.128 177.16 19.0587 177.011 18.92C176.861 18.7707 176.787 18.584 176.787 18.36C176.787 18.2 176.829 18.0507 176.915 17.912C177 17.7627 177.128 17.64 177.299 17.544C177.757 17.288 178.072 16.8613 178.243 16.264C178.424 15.6667 178.515 14.7547 178.515 13.528V12.184C178.504 11.8747 178.584 11.6293 178.755 11.448C178.925 11.2667 179.16 11.176 179.459 11.176H183.683C183.992 11.1653 184.237 11.2453 184.419 11.416C184.6 11.5867 184.691 11.8213 184.691 12.12V18.152C184.691 18.44 184.6 18.6693 184.419 18.84C184.237 19.0107 183.992 19.096 183.683 19.096C183.384 19.096 183.144 19.0107 182.963 18.84C182.781 18.6693 182.691 18.44 182.691 18.152V12.68H180.355V13.48ZM192.92 16.856C193.101 16.856 193.245 16.9253 193.352 17.064C193.469 17.2027 193.528 17.3893 193.528 17.624C193.528 17.9547 193.33 18.232 192.936 18.456C192.573 18.6587 192.162 18.824 191.704 18.952C191.245 19.0693 190.808 19.128 190.391 19.128C189.133 19.128 188.136 18.7653 187.4 18.04C186.664 17.3147 186.296 16.3227 186.296 15.064C186.296 14.264 186.456 13.5547 186.776 12.936C187.096 12.3173 187.544 11.8373 188.12 11.496C188.706 11.1547 189.368 10.984 190.104 10.984C190.808 10.984 191.421 11.1387 191.944 11.448C192.466 11.7573 192.872 12.1947 193.16 12.76C193.448 13.3253 193.592 13.992 193.592 14.76C193.592 15.2187 193.389 15.448 192.984 15.448H188.264C188.328 16.184 188.536 16.728 188.888 17.08C189.24 17.4213 189.752 17.592 190.424 17.592C190.765 17.592 191.064 17.5493 191.32 17.464C191.586 17.3787 191.885 17.2613 192.216 17.112C192.536 16.9413 192.77 16.856 192.92 16.856ZM190.152 12.392C189.608 12.392 189.17 12.5627 188.84 12.904C188.52 13.2453 188.328 13.736 188.264 14.376H191.88C191.858 13.7253 191.698 13.2347 191.4 12.904C191.101 12.5627 190.685 12.392 190.152 12.392ZM196.172 19.096C195.873 19.096 195.633 19.0107 195.452 18.84C195.27 18.6693 195.18 18.44 195.18 18.152V11.96C195.18 11.672 195.27 11.4427 195.452 11.272C195.633 11.1013 195.873 11.016 196.172 11.016C196.481 11.016 196.726 11.1013 196.908 11.272C197.089 11.4427 197.18 11.672 197.18 11.96V14.216H200.604V11.96C200.604 11.672 200.694 11.4427 200.876 11.272C201.057 11.1013 201.297 11.016 201.596 11.016C201.905 11.016 202.15 11.1013 202.332 11.272C202.513 11.4427 202.604 11.672 202.604 11.96L202.62 18.072C202.62 18.3813 202.524 18.632 202.332 18.824C202.15 19.0053 201.91 19.096 201.612 19.096C201.302 19.096 201.057 19.0053 200.876 18.824C200.694 18.632 200.604 18.3813 200.604 18.072V15.768H197.18V18.152C197.18 18.44 197.089 18.6693 196.908 18.84C196.726 19.0107 196.481 19.096 196.172 19.096ZM205.593 19.096C205.295 19.096 205.055 19.0107 204.873 18.84C204.692 18.6693 204.601 18.44 204.601 18.152V11.96C204.601 11.672 204.692 11.4427 204.873 11.272C205.055 11.1013 205.295 11.016 205.593 11.016C205.903 11.016 206.148 11.1013 206.329 11.272C206.511 11.4427 206.601 11.672 206.601 11.96V14.216H210.025V11.96C210.025 11.672 210.116 11.4427 210.297 11.272C210.479 11.1013 210.719 11.016 211.017 11.016C211.327 11.016 211.572 11.1013 211.753 11.272C211.935 11.4427 212.025 11.672 212.025 11.96L212.041 18.072C212.041 18.3813 211.945 18.632 211.753 18.824C211.572 19.0053 211.332 19.096 211.033 19.096C210.724 19.096 210.479 19.0053 210.297 18.824C210.116 18.632 210.025 18.3813 210.025 18.072V15.768H206.601V18.152C206.601 18.44 206.511 18.6693 206.329 18.84C206.148 19.0107 205.903 19.096 205.593 19.096ZM215.031 19C214.722 19.0107 214.477 18.9307 214.295 18.76C214.114 18.5893 214.023 18.3547 214.023 18.056V11.96C214.023 11.672 214.114 11.4427 214.295 11.272C214.477 11.1013 214.717 11.016 215.015 11.016C215.325 11.016 215.57 11.1013 215.751 11.272C215.933 11.4427 216.023 11.672 216.023 11.96V13.768H217.191C218.151 13.768 218.898 13.9653 219.431 14.36C219.965 14.744 220.231 15.3893 220.231 16.296C220.231 16.872 220.082 17.368 219.783 17.784C219.495 18.1893 219.111 18.4933 218.631 18.696C218.162 18.8987 217.655 19 217.111 19H215.031ZM222.231 19.096C221.922 19.096 221.677 19.0107 221.495 18.84C221.314 18.6693 221.223 18.44 221.223 18.152V11.96C221.223 11.672 221.314 11.4427 221.495 11.272C221.677 11.1013 221.922 11.016 222.231 11.016C222.53 11.016 222.77 11.1013 222.951 11.272C223.133 11.4427 223.223 11.672 223.223 11.96V18.152C223.223 18.44 223.133 18.6693 222.951 18.84C222.77 19.0107 222.53 19.096 222.231 19.096ZM216.695 17.624C217.122 17.624 217.49 17.5227 217.799 17.32C218.109 17.1173 218.263 16.792 218.263 16.344C218.263 15.864 218.119 15.544 217.831 15.384C217.554 15.224 217.175 15.144 216.695 15.144H215.991V17.624H216.695ZM232.043 17.528C232.235 17.72 232.331 17.9387 232.331 18.184C232.331 18.4187 232.24 18.632 232.059 18.824C231.877 19.0053 231.664 19.096 231.419 19.096C231.152 19.096 230.923 18.984 230.731 18.76L228.475 16.264L226.219 18.76C226.016 18.9733 225.787 19.08 225.531 19.08C225.296 19.08 225.088 18.9893 224.907 18.808C224.725 18.6267 224.635 18.4187 224.635 18.184C224.635 17.9387 224.731 17.72 224.923 17.528L227.259 14.984L225.051 12.584C224.859 12.392 224.763 12.1733 224.763 11.928C224.763 11.6827 224.853 11.4747 225.035 11.304C225.216 11.1227 225.424 11.032 225.659 11.032C225.915 11.032 226.144 11.1387 226.347 11.352L228.475 13.688L230.603 11.352C230.805 11.1387 231.035 11.032 231.291 11.032C231.536 11.032 231.744 11.1227 231.915 11.304C232.096 11.4747 232.187 11.6827 232.187 11.928C232.187 12.1733 232.091 12.392 231.899 12.584L229.691 14.984L232.043 17.528ZM239.062 19.096C238.763 19.096 238.523 19.0107 238.342 18.84C238.161 18.6693 238.07 18.44 238.07 18.152V12.184C238.059 11.8747 238.139 11.6293 238.31 11.448C238.481 11.2667 238.715 11.176 239.014 11.176H244.374C244.683 11.1653 244.929 11.2453 245.11 11.416C245.291 11.5867 245.382 11.8213 245.382 12.12V18.152C245.382 18.44 245.291 18.6693 245.11 18.84C244.929 19.0107 244.689 19.096 244.39 19.096C244.081 19.096 243.835 19.0107 243.654 18.84C243.473 18.6693 243.382 18.44 243.382 18.152V12.68H240.07V18.152C240.07 18.44 239.979 18.6693 239.798 18.84C239.617 19.0107 239.371 19.096 239.062 19.096ZM250.983 19.128C250.183 19.128 249.479 18.9627 248.871 18.632C248.274 18.3013 247.81 17.8267 247.479 17.208C247.148 16.5893 246.983 15.8693 246.983 15.048C246.983 14.2267 247.148 13.512 247.479 12.904C247.81 12.2853 248.274 11.8107 248.871 11.48C249.479 11.1493 250.183 10.984 250.983 10.984C251.783 10.984 252.482 11.1493 253.079 11.48C253.687 11.8107 254.151 12.2853 254.471 12.904C254.802 13.512 254.967 14.2267 254.967 15.048C254.967 15.8693 254.802 16.5893 254.471 17.208C254.151 17.8267 253.687 18.3013 253.079 18.632C252.482 18.9627 251.783 19.128 250.983 19.128ZM250.967 17.576C251.618 17.576 252.114 17.3627 252.455 16.936C252.796 16.5093 252.967 15.88 252.967 15.048C252.967 14.2267 252.796 13.6027 252.455 13.176C252.114 12.7387 251.623 12.52 250.983 12.52C250.343 12.52 249.847 12.7387 249.495 13.176C249.154 13.6027 248.983 14.2267 248.983 15.048C248.983 15.88 249.154 16.5093 249.495 16.936C249.836 17.3627 250.327 17.576 250.967 17.576ZM264.25 11.016C264.559 11.016 264.805 11.1013 264.986 11.272C265.167 11.4427 265.258 11.672 265.258 11.96V18.168C265.258 18.4347 265.173 18.6587 265.002 18.84C264.831 19.0107 264.613 19.096 264.346 19.096C264.079 19.096 263.855 19.0107 263.674 18.84C263.503 18.6587 263.418 18.4347 263.418 18.168L263.434 14.136L261.834 17.112C261.738 17.2827 261.61 17.4213 261.45 17.528C261.29 17.624 261.114 17.672 260.922 17.672C260.517 17.672 260.207 17.4853 259.994 17.112L258.394 14.136L258.41 18.168C258.41 18.4347 258.319 18.6587 258.138 18.84C257.967 19.0107 257.749 19.096 257.482 19.096C257.215 19.096 256.997 19.0107 256.826 18.84C256.655 18.6587 256.57 18.4347 256.57 18.168V12.024C256.57 11.7147 256.65 11.4693 256.81 11.288C256.981 11.1067 257.215 11.016 257.514 11.016C257.802 11.016 258.042 11.064 258.234 11.16C258.426 11.2453 258.597 11.432 258.746 11.72L260.922 15.832L263.018 11.848C263.189 11.5387 263.359 11.3253 263.53 11.208C263.711 11.08 263.951 11.016 264.25 11.016ZM270.858 19.128C270.058 19.128 269.354 18.9627 268.746 18.632C268.149 18.3013 267.685 17.8267 267.354 17.208C267.023 16.5893 266.858 15.8693 266.858 15.048C266.858 14.2267 267.023 13.512 267.354 12.904C267.685 12.2853 268.149 11.8107 268.746 11.48C269.354 11.1493 270.058 10.984 270.858 10.984C271.658 10.984 272.357 11.1493 272.954 11.48C273.562 11.8107 274.026 12.2853 274.346 12.904C274.677 13.512 274.842 14.2267 274.842 15.048C274.842 15.8693 274.677 16.5893 274.346 17.208C274.026 17.8267 273.562 18.3013 272.954 18.632C272.357 18.9627 271.658 19.128 270.858 19.128ZM270.842 17.576C271.493 17.576 271.989 17.3627 272.33 16.936C272.671 16.5093 272.842 15.88 272.842 15.048C272.842 14.2267 272.671 13.6027 272.33 13.176C271.989 12.7387 271.498 12.52 270.858 12.52C270.218 12.52 269.722 12.7387 269.37 13.176C269.029 13.6027 268.858 14.2267 268.858 15.048C268.858 15.88 269.029 16.5093 269.37 16.936C269.711 17.3627 270.202 17.576 270.842 17.576ZM287.565 21.128C287.288 21.128 287.064 21.0427 286.893 20.872C286.733 20.712 286.653 20.4827 286.653 20.184V19H277.453C277.144 19.0107 276.898 18.9307 276.717 18.76C276.536 18.5893 276.445 18.3547 276.445 18.056V11.96C276.445 11.672 276.53 11.4427 276.701 11.272C276.882 11.1013 277.122 11.016 277.421 11.016C277.73 11.016 277.976 11.1013 278.157 11.272C278.338 11.4427 278.429 11.672 278.429 11.96V17.496H280.861V11.96C280.861 11.672 280.941 11.4427 281.101 11.272C281.272 11.1013 281.506 11.016 281.805 11.016C282.114 11.016 282.36 11.1013 282.541 11.272C282.722 11.4427 282.813 11.672 282.813 11.96V17.496H285.245V11.96C285.245 11.672 285.33 11.4427 285.501 11.272C285.682 11.1013 285.922 11.016 286.221 11.016C286.53 11.016 286.776 11.1013 286.957 11.272C287.138 11.4427 287.229 11.672 287.229 11.96V17.496H287.469C287.778 17.4853 288.024 17.5653 288.205 17.736C288.386 17.9067 288.477 18.1413 288.477 18.44V20.184C288.477 20.4827 288.397 20.712 288.237 20.872C288.077 21.0427 287.853 21.128 287.565 21.128ZM290.797 19.096C290.498 19.096 290.258 19.0107 290.077 18.84C289.895 18.6693 289.805 18.44 289.805 18.152V11.96C289.805 11.672 289.895 11.4427 290.077 11.272C290.258 11.1013 290.498 11.016 290.797 11.016C291.106 11.016 291.351 11.1013 291.533 11.272C291.714 11.4427 291.805 11.672 291.805 11.96V14.216H295.229V11.96C295.229 11.672 295.319 11.4427 295.501 11.272C295.682 11.1013 295.922 11.016 296.221 11.016C296.53 11.016 296.775 11.1013 296.957 11.272C297.138 11.4427 297.229 11.672 297.229 11.96L297.245 18.072C297.245 18.3813 297.149 18.632 296.957 18.824C296.775 19.0053 296.535 19.096 296.237 19.096C295.927 19.096 295.682 19.0053 295.501 18.824C295.319 18.632 295.229 18.3813 295.229 18.072V15.768H291.805V18.152C291.805 18.44 291.714 18.6693 291.533 18.84C291.351 19.0107 291.106 19.096 290.797 19.096ZM304.474 11.784C304.688 11.4853 304.88 11.2827 305.05 11.176C305.232 11.0693 305.477 11.016 305.786 11.016C306.096 11.016 306.341 11.1013 306.522 11.272C306.714 11.4427 306.81 11.672 306.81 11.96V18.12C306.81 18.408 306.72 18.6427 306.538 18.824C306.368 19.0053 306.144 19.096 305.866 19.096C305.578 19.096 305.344 19.0053 305.162 18.824C304.992 18.6427 304.906 18.408 304.906 18.12V13.608L301.514 18.36C301.312 18.648 301.114 18.8453 300.922 18.952C300.741 19.048 300.512 19.096 300.234 19.096C299.925 19.096 299.68 19.0107 299.498 18.84C299.317 18.6693 299.226 18.4347 299.226 18.136V11.976C299.226 11.688 299.312 11.4587 299.482 11.288C299.664 11.1067 299.898 11.016 300.186 11.016C300.464 11.016 300.688 11.1067 300.858 11.288C301.04 11.4587 301.13 11.688 301.13 11.976V16.456L304.474 11.784ZM313.413 14.712C313.786 14.8507 314.085 15.0373 314.309 15.272C314.544 15.5067 314.816 15.9013 315.125 16.456L315.829 17.672C315.925 17.8427 315.973 18.008 315.973 18.168C315.973 18.424 315.872 18.6427 315.669 18.824C315.477 18.9947 315.248 19.08 314.981 19.08C314.618 19.08 314.341 18.9093 314.149 18.568L313.141 16.776C312.917 16.4027 312.698 16.1413 312.485 15.992C312.272 15.8427 311.962 15.768 311.557 15.768H310.933V18.136C310.933 18.4347 310.842 18.6693 310.661 18.84C310.48 19.0107 310.234 19.096 309.925 19.096C309.616 19.096 309.37 19.0107 309.189 18.84C309.018 18.6693 308.933 18.4347 308.933 18.136V11.96C308.933 11.672 309.024 11.4427 309.205 11.272C309.386 11.1013 309.626 11.016 309.925 11.016C310.234 11.016 310.48 11.1013 310.661 11.272C310.842 11.4427 310.933 11.672 310.933 11.96V14.28H311.653L313.941 11.432C314.154 11.1547 314.405 11.016 314.693 11.016C314.917 11.016 315.109 11.096 315.269 11.256C315.429 11.416 315.509 11.608 315.509 11.832C315.509 12.056 315.424 12.2747 315.253 12.488L313.413 14.712ZM321.139 19.128C320.339 19.128 319.635 18.9627 319.027 18.632C318.43 18.3013 317.966 17.8267 317.635 17.208C317.305 16.5893 317.139 15.8693 317.139 15.048C317.139 14.2267 317.305 13.512 317.635 12.904C317.966 12.2853 318.43 11.8107 319.027 11.48C319.635 11.1493 320.339 10.984 321.139 10.984C321.939 10.984 322.638 11.1493 323.235 11.48C323.843 11.8107 324.307 12.2853 324.627 12.904C324.958 13.512 325.123 14.2267 325.123 15.048C325.123 15.8693 324.958 16.5893 324.627 17.208C324.307 17.8267 323.843 18.3013 323.235 18.632C322.638 18.9627 321.939 19.128 321.139 19.128ZM321.123 17.576C321.774 17.576 322.27 17.3627 322.611 16.936C322.953 16.5093 323.123 15.88 323.123 15.048C323.123 14.2267 322.953 13.6027 322.611 13.176C322.27 12.7387 321.779 12.52 321.139 12.52C320.499 12.52 320.003 12.7387 319.651 13.176C319.31 13.6027 319.139 14.2267 319.139 15.048C319.139 15.88 319.31 16.5093 319.651 16.936C319.993 17.3627 320.483 17.576 321.123 17.576ZM327.734 19C327.425 19.0107 327.18 18.9307 326.998 18.76C326.817 18.5893 326.726 18.3547 326.726 18.056V12.184C326.716 11.8747 326.796 11.6293 326.966 11.448C327.137 11.2667 327.372 11.176 327.67 11.176H330.63C331.516 11.176 332.209 11.352 332.71 11.704C333.222 12.056 333.478 12.552 333.478 13.192C333.478 13.5867 333.361 13.944 333.126 14.264C332.892 14.584 332.556 14.8187 332.118 14.968C332.62 15.0853 333.004 15.2987 333.27 15.608C333.548 15.9173 333.686 16.312 333.686 16.792C333.686 17.4213 333.42 17.9493 332.886 18.376C332.364 18.792 331.628 19 330.678 19H327.734ZM330.294 14.376C330.678 14.376 330.977 14.2907 331.19 14.12C331.404 13.9493 331.51 13.7147 331.51 13.416C331.51 12.8187 331.1 12.52 330.278 12.52H328.71V14.376H330.294ZM330.342 17.656C331.238 17.656 331.686 17.32 331.686 16.648C331.686 15.976 331.238 15.64 330.342 15.64H328.71V17.656H330.342ZM70.912 30.648C70.912 30.3387 71.0027 30.0933 71.184 29.912C71.3653 29.72 71.6107 29.624 71.92 29.624C72.2293 29.624 72.4747 29.72 72.656 29.912C72.8373 30.0933 72.928 30.3387 72.928 30.648V33.208C72.928 33.9867 73.1413 34.5467 73.568 34.888C74.0053 35.2293 74.6347 35.4 75.456 35.4C76.224 35.4 76.864 35.3147 77.376 35.144V30.648C77.376 30.3387 77.4667 30.0933 77.648 29.912C77.84 29.72 78.0853 29.624 78.384 29.624C78.6933 29.624 78.9387 29.72 79.12 29.912C79.3013 30.0933 79.392 30.3387 79.392 30.648V40.072C79.392 40.3813 79.296 40.632 79.104 40.824C78.9227 41.0053 78.6827 41.096 78.384 41.096C78.0747 41.096 77.8293 41.0053 77.648 40.824C77.4667 40.632 77.376 40.3813 77.376 40.072V36.728C77.1093 36.8027 76.752 36.872 76.304 36.936C75.8667 37 75.4507 37.032 75.056 37.032C73.7653 37.032 72.752 36.7547 72.016 36.2C71.28 35.6347 70.912 34.744 70.912 33.528V30.648ZM87.8414 38.856C88.0227 38.856 88.1667 38.9253 88.2734 39.064C88.3907 39.2027 88.4494 39.3893 88.4494 39.624C88.4494 39.9547 88.252 40.232 87.8574 40.456C87.4947 40.6587 87.084 40.824 86.6254 40.952C86.1667 41.0693 85.7294 41.128 85.3134 41.128C84.0547 41.128 83.0574 40.7653 82.3214 40.04C81.5854 39.3147 81.2174 38.3227 81.2174 37.064C81.2174 36.264 81.3774 35.5547 81.6974 34.936C82.0174 34.3173 82.4654 33.8373 83.0414 33.496C83.628 33.1547 84.2894 32.984 85.0254 32.984C85.7294 32.984 86.3427 33.1387 86.8654 33.448C87.388 33.7573 87.7934 34.1947 88.0814 34.76C88.3694 35.3253 88.5134 35.992 88.5134 36.76C88.5134 37.2187 88.3107 37.448 87.9054 37.448H83.1854C83.2494 38.184 83.4574 38.728 83.8094 39.08C84.1614 39.4213 84.6734 39.592 85.3454 39.592C85.6867 39.592 85.9854 39.5493 86.2414 39.464C86.508 39.3787 86.8067 39.2613 87.1374 39.112C87.4574 38.9413 87.692 38.856 87.8414 38.856ZM85.0734 34.392C84.5294 34.392 84.092 34.5627 83.7614 34.904C83.4414 35.2453 83.2494 35.736 83.1854 36.376H86.8014C86.78 35.7253 86.62 35.2347 86.3214 34.904C86.0227 34.5627 85.6067 34.392 85.0734 34.392ZM94.6454 32.984C95.3174 32.984 95.9147 33.1547 96.4374 33.496C96.9707 33.8373 97.3814 34.3227 97.6694 34.952C97.968 35.5707 98.1174 36.2853 98.1174 37.096C98.1174 37.9067 97.968 38.616 97.6694 39.224C97.3814 39.832 96.976 40.3013 96.4534 40.632C95.9307 40.9627 95.328 41.128 94.6454 41.128C94.0907 41.128 93.5947 41.0107 93.1574 40.776C92.72 40.5413 92.384 40.216 92.1494 39.8V43.064C92.1494 43.3413 92.0587 43.56 91.8774 43.72C91.696 43.88 91.456 43.96 91.1574 43.96C90.8587 43.96 90.6134 43.8747 90.4214 43.704C90.24 43.5333 90.1494 43.3093 90.1494 43.032V33.96C90.1494 33.672 90.2347 33.4427 90.4054 33.272C90.5867 33.1013 90.8267 33.016 91.1254 33.016C91.424 33.016 91.664 33.1013 91.8454 33.272C92.0267 33.4427 92.1174 33.672 92.1174 33.96V34.36C92.352 33.9227 92.688 33.5867 93.1254 33.352C93.5734 33.1067 94.08 32.984 94.6454 32.984ZM94.1174 39.576C94.7467 39.576 95.2374 39.3627 95.5894 38.936C95.9414 38.4987 96.1174 37.8853 96.1174 37.096C96.1174 36.2853 95.9414 35.656 95.5894 35.208C95.2374 34.76 94.7467 34.536 94.1174 34.536C93.4774 34.536 92.9814 34.7547 92.6294 35.192C92.288 35.6293 92.1174 36.2533 92.1174 37.064C92.1174 37.864 92.288 38.4827 92.6294 38.92C92.9814 39.3573 93.4774 39.576 94.1174 39.576ZM100.703 41.096C100.404 41.096 100.164 41.0107 99.9828 40.84C99.8014 40.6693 99.7108 40.44 99.7108 40.152V33.96C99.7108 33.672 99.8014 33.4427 99.9828 33.272C100.164 33.1013 100.404 33.016 100.703 33.016C101.012 33.016 101.257 33.1013 101.439 33.272C101.62 33.4427 101.711 33.672 101.711 33.96V36.216H105.135V33.96C105.135 33.672 105.225 33.4427 105.407 33.272C105.588 33.1013 105.828 33.016 106.127 33.016C106.436 33.016 106.681 33.1013 106.863 33.272C107.044 33.4427 107.135 33.672 107.135 33.96L107.151 40.072C107.151 40.3813 107.055 40.632 106.863 40.824C106.681 41.0053 106.441 41.096 106.143 41.096C105.833 41.096 105.588 41.0053 105.407 40.824C105.225 40.632 105.135 40.3813 105.135 40.072V37.768H101.711V40.152C101.711 40.44 101.62 40.6693 101.439 40.84C101.257 41.0107 101.012 41.096 100.703 41.096ZM114.381 33.784C114.594 33.4853 114.786 33.2827 114.957 33.176C115.138 33.0693 115.383 33.016 115.693 33.016C116.002 33.016 116.247 33.1013 116.429 33.272C116.621 33.4427 116.717 33.672 116.717 33.96V40.12C116.717 40.408 116.626 40.6427 116.445 40.824C116.274 41.0053 116.05 41.096 115.773 41.096C115.485 41.096 115.25 41.0053 115.069 40.824C114.898 40.6427 114.813 40.408 114.813 40.12V35.608L111.421 40.36C111.218 40.648 111.021 40.8453 110.829 40.952C110.647 41.048 110.418 41.096 110.141 41.096C109.831 41.096 109.586 41.0107 109.405 40.84C109.223 40.6693 109.133 40.4347 109.133 40.136V33.976C109.133 33.688 109.218 33.4587 109.389 33.288C109.57 33.1067 109.805 33.016 110.093 33.016C110.37 33.016 110.594 33.1067 110.765 33.288C110.946 33.4587 111.037 33.688 111.037 33.976V38.456L114.381 33.784ZM123.319 36.712C123.692 36.8507 123.991 37.0373 124.215 37.272C124.45 37.5067 124.722 37.9013 125.031 38.456L125.735 39.672C125.831 39.8427 125.879 40.008 125.879 40.168C125.879 40.424 125.778 40.6427 125.575 40.824C125.383 40.9947 125.154 41.08 124.887 41.08C124.524 41.08 124.247 40.9093 124.055 40.568L123.047 38.776C122.823 38.4027 122.604 38.1413 122.391 37.992C122.178 37.8427 121.868 37.768 121.463 37.768H120.839V40.136C120.839 40.4347 120.748 40.6693 120.567 40.84C120.386 41.0107 120.14 41.096 119.831 41.096C119.522 41.096 119.276 41.0107 119.095 40.84C118.924 40.6693 118.839 40.4347 118.839 40.136V33.96C118.839 33.672 118.93 33.4427 119.111 33.272C119.292 33.1013 119.532 33.016 119.831 33.016C120.14 33.016 120.386 33.1013 120.567 33.272C120.748 33.4427 120.839 33.672 120.839 33.96V36.28H121.559L123.847 33.432C124.06 33.1547 124.311 33.016 124.599 33.016C124.823 33.016 125.015 33.096 125.175 33.256C125.335 33.416 125.415 33.608 125.415 33.832C125.415 34.056 125.33 34.2747 125.159 34.488L123.319 36.712ZM131.046 41.128C130.246 41.128 129.542 40.9627 128.934 40.632C128.336 40.3013 127.872 39.8267 127.542 39.208C127.211 38.5893 127.046 37.8693 127.046 37.048C127.046 36.2267 127.211 35.512 127.542 34.904C127.872 34.2853 128.336 33.8107 128.934 33.48C129.542 33.1493 130.246 32.984 131.046 32.984C131.846 32.984 132.544 33.1493 133.142 33.48C133.75 33.8107 134.214 34.2853 134.534 34.904C134.864 35.512 135.03 36.2267 135.03 37.048C135.03 37.8693 134.864 38.5893 134.534 39.208C134.214 39.8267 133.75 40.3013 133.142 40.632C132.544 40.9627 131.846 41.128 131.046 41.128ZM131.03 39.576C131.68 39.576 132.176 39.3627 132.518 38.936C132.859 38.5093 133.03 37.88 133.03 37.048C133.03 36.2267 132.859 35.6027 132.518 35.176C132.176 34.7387 131.686 34.52 131.046 34.52C130.406 34.52 129.91 34.7387 129.558 35.176C129.216 35.6027 129.046 36.2267 129.046 37.048C129.046 37.88 129.216 38.5093 129.558 38.936C129.899 39.3627 130.39 39.576 131.03 39.576ZM137.641 41C137.331 41.0107 137.086 40.9307 136.905 40.76C136.723 40.5893 136.633 40.3547 136.633 40.056V34.184C136.622 33.8747 136.702 33.6293 136.873 33.448C137.043 33.2667 137.278 33.176 137.577 33.176H140.537C141.422 33.176 142.115 33.352 142.617 33.704C143.129 34.056 143.385 34.552 143.385 35.192C143.385 35.5867 143.267 35.944 143.033 36.264C142.798 36.584 142.462 36.8187 142.025 36.968C142.526 37.0853 142.91 37.2987 143.177 37.608C143.454 37.9173 143.593 38.312 143.593 38.792C143.593 39.4213 143.326 39.9493 142.793 40.376C142.27 40.792 141.534 41 140.585 41H137.641ZM140.201 36.376C140.585 36.376 140.883 36.2907 141.097 36.12C141.31 35.9493 141.417 35.7147 141.417 35.416C141.417 34.8187 141.006 34.52 140.185 34.52H138.617V36.376H140.201ZM140.249 39.656C141.145 39.656 141.593 39.32 141.593 38.648C141.593 37.976 141.145 37.64 140.249 37.64H138.617V39.656H140.249ZM148.811 41.128C148.011 41.128 147.307 40.9627 146.699 40.632C146.102 40.3013 145.638 39.8267 145.307 39.208C144.976 38.5893 144.811 37.8693 144.811 37.048C144.811 36.2267 144.976 35.512 145.307 34.904C145.638 34.2853 146.102 33.8107 146.699 33.48C147.307 33.1493 148.011 32.984 148.811 32.984C149.611 32.984 150.31 33.1493 150.907 33.48C151.515 33.8107 151.979 34.2853 152.299 34.904C152.63 35.512 152.795 36.2267 152.795 37.048C152.795 37.8693 152.63 38.5893 152.299 39.208C151.979 39.8267 151.515 40.3013 150.907 40.632C150.31 40.9627 149.611 41.128 148.811 41.128ZM148.795 39.576C149.446 39.576 149.942 39.3627 150.283 38.936C150.624 38.5093 150.795 37.88 150.795 37.048C150.795 36.2267 150.624 35.6027 150.283 35.176C149.942 34.7387 149.451 34.52 148.811 34.52C148.171 34.52 147.675 34.7387 147.323 35.176C146.982 35.6027 146.811 36.2267 146.811 37.048C146.811 37.88 146.982 38.5093 147.323 38.936C147.664 39.3627 148.155 39.576 148.795 39.576ZM159.646 33.784C159.86 33.4853 160.052 33.2827 160.222 33.176C160.404 33.0693 160.649 33.016 160.958 33.016C161.268 33.016 161.513 33.1013 161.694 33.272C161.886 33.4427 161.982 33.672 161.982 33.96V40.12C161.982 40.408 161.892 40.6427 161.71 40.824C161.54 41.0053 161.316 41.096 161.038 41.096C160.75 41.096 160.516 41.0053 160.334 40.824C160.164 40.6427 160.078 40.408 160.078 40.12V35.608L156.686 40.36C156.484 40.648 156.286 40.8453 156.094 40.952C155.913 41.048 155.684 41.096 155.406 41.096C155.097 41.096 154.852 41.0107 154.67 40.84C154.489 40.6693 154.398 40.4347 154.398 40.136V33.976C154.398 33.688 154.484 33.4587 154.654 33.288C154.836 33.1067 155.07 33.016 155.358 33.016C155.636 33.016 155.86 33.1067 156.03 33.288C156.212 33.4587 156.302 33.688 156.302 33.976V38.456L159.646 33.784ZM158.142 31.656C157.449 31.656 156.862 31.5013 156.382 31.192C155.913 30.8827 155.577 30.456 155.374 29.912C155.342 29.816 155.326 29.7253 155.326 29.64C155.326 29.4693 155.385 29.3307 155.502 29.224C155.63 29.1067 155.774 29.048 155.934 29.048C156.169 29.048 156.35 29.1653 156.478 29.4C156.649 29.7307 156.878 29.9867 157.166 30.168C157.465 30.3493 157.79 30.44 158.142 30.44C158.484 30.44 158.798 30.3493 159.086 30.168C159.374 29.9867 159.614 29.7307 159.806 29.4C159.945 29.1653 160.132 29.048 160.366 29.048C160.526 29.048 160.665 29.1067 160.782 29.224C160.9 29.3307 160.958 29.4693 160.958 29.64C160.958 29.7253 160.942 29.816 160.91 29.912C160.718 30.456 160.382 30.8827 159.902 31.192C159.422 31.5013 158.836 31.656 158.142 31.656ZM178.753 39.768C178.817 39.9067 178.849 40.0453 178.849 40.184C178.849 40.4293 178.747 40.6373 178.545 40.808C178.353 40.9787 178.129 41.064 177.873 41.064C177.702 41.064 177.542 41.0213 177.393 40.936C177.243 40.84 177.126 40.696 177.041 40.504L176.081 38.36H170.449L169.489 40.504C169.403 40.696 169.286 40.84 169.137 40.936C168.987 41.0213 168.822 41.064 168.641 41.064C168.395 41.064 168.171 40.9787 167.969 40.808C167.766 40.6373 167.665 40.4293 167.665 40.184C167.665 40.0453 167.697 39.9067 167.761 39.768L172.177 30.28C172.273 30.0667 172.417 29.9067 172.609 29.8C172.811 29.6827 173.025 29.624 173.249 29.624C173.473 29.624 173.681 29.6827 173.873 29.8C174.075 29.9067 174.225 30.0667 174.321 30.28L178.753 39.768ZM171.153 36.76H175.377L173.265 32.008L171.153 36.76ZM182.98 35.48C182.98 37.112 182.777 38.36 182.372 39.224C181.966 40.0773 181.385 40.6853 180.628 41.048C180.51 41.1013 180.372 41.128 180.212 41.128C179.977 41.128 179.785 41.0587 179.636 40.92C179.486 40.7707 179.412 40.584 179.412 40.36C179.412 40.2 179.454 40.0507 179.54 39.912C179.625 39.7627 179.753 39.64 179.924 39.544C180.382 39.288 180.697 38.8613 180.868 38.264C181.049 37.6667 181.14 36.7547 181.14 35.528V34.184C181.129 33.8747 181.209 33.6293 181.38 33.448C181.55 33.2667 181.785 33.176 182.084 33.176H186.308C186.617 33.1653 186.862 33.2453 187.044 33.416C187.225 33.5867 187.316 33.8213 187.316 34.12V40.152C187.316 40.44 187.225 40.6693 187.044 40.84C186.862 41.0107 186.617 41.096 186.308 41.096C186.009 41.096 185.769 41.0107 185.588 40.84C185.406 40.6693 185.316 40.44 185.316 40.152V34.68H182.98V35.48ZM195.545 38.856C195.726 38.856 195.87 38.9253 195.977 39.064C196.094 39.2027 196.153 39.3893 196.153 39.624C196.153 39.9547 195.955 40.232 195.561 40.456C195.198 40.6587 194.787 40.824 194.329 40.952C193.87 41.0693 193.433 41.128 193.016 41.128C191.758 41.128 190.761 40.7653 190.025 40.04C189.289 39.3147 188.921 38.3227 188.921 37.064C188.921 36.264 189.081 35.5547 189.401 34.936C189.721 34.3173 190.169 33.8373 190.745 33.496C191.331 33.1547 191.993 32.984 192.729 32.984C193.433 32.984 194.046 33.1387 194.569 33.448C195.091 33.7573 195.497 34.1947 195.785 34.76C196.073 35.3253 196.217 35.992 196.217 36.76C196.217 37.2187 196.014 37.448 195.609 37.448H190.889C190.953 38.184 191.161 38.728 191.513 39.08C191.865 39.4213 192.377 39.592 193.049 39.592C193.39 39.592 193.689 39.5493 193.945 39.464C194.211 39.3787 194.51 39.2613 194.841 39.112C195.161 38.9413 195.395 38.856 195.545 38.856ZM192.777 34.392C192.233 34.392 191.795 34.5627 191.465 34.904C191.145 35.2453 190.953 35.736 190.889 36.376H194.505C194.483 35.7253 194.323 35.2347 194.025 34.904C193.726 34.5627 193.31 34.392 192.777 34.392ZM198.797 41.096C198.498 41.096 198.258 41.0107 198.077 40.84C197.895 40.6693 197.805 40.44 197.805 40.152V33.96C197.805 33.672 197.895 33.4427 198.077 33.272C198.258 33.1013 198.498 33.016 198.797 33.016C199.106 33.016 199.351 33.1013 199.533 33.272C199.714 33.4427 199.805 33.672 199.805 33.96V36.216H203.229V33.96C203.229 33.672 203.319 33.4427 203.501 33.272C203.682 33.1013 203.922 33.016 204.221 33.016C204.53 33.016 204.775 33.1013 204.957 33.272C205.138 33.4427 205.229 33.672 205.229 33.96L205.245 40.072C205.245 40.3813 205.149 40.632 204.957 40.824C204.775 41.0053 204.535 41.096 204.237 41.096C203.927 41.096 203.682 41.0053 203.501 40.824C203.319 40.632 203.229 40.3813 203.229 40.072V37.768H199.805V40.152C199.805 40.44 199.714 40.6693 199.533 40.84C199.351 41.0107 199.106 41.096 198.797 41.096ZM208.234 41C207.925 41.0107 207.68 40.9307 207.498 40.76C207.317 40.5893 207.226 40.3547 207.226 40.056V33.96C207.226 33.672 207.317 33.4427 207.498 33.272C207.68 33.1013 207.92 33.016 208.218 33.016C208.528 33.016 208.773 33.1013 208.954 33.272C209.136 33.4427 209.226 33.672 209.226 33.96V35.768H210.394C211.354 35.768 212.101 35.9653 212.634 36.36C213.168 36.744 213.434 37.3893 213.434 38.296C213.434 38.872 213.285 39.368 212.986 39.784C212.698 40.1893 212.314 40.4933 211.834 40.696C211.365 40.8987 210.858 41 210.314 41H208.234ZM215.434 41.096C215.125 41.096 214.88 41.0107 214.698 40.84C214.517 40.6693 214.426 40.44 214.426 40.152V33.96C214.426 33.672 214.517 33.4427 214.698 33.272C214.88 33.1013 215.125 33.016 215.434 33.016C215.733 33.016 215.973 33.1013 216.154 33.272C216.336 33.4427 216.426 33.672 216.426 33.96V40.152C216.426 40.44 216.336 40.6693 216.154 40.84C215.973 41.0107 215.733 41.096 215.434 41.096ZM209.898 39.624C210.325 39.624 210.693 39.5227 211.002 39.32C211.312 39.1173 211.466 38.792 211.466 38.344C211.466 37.864 211.322 37.544 211.034 37.384C210.757 37.224 210.378 37.144 209.898 37.144H209.194V39.624H209.898Z" fill="#434343"/>
<path d="M48.8235 19.3069L44.9806 18.4715C44.6465 17.4484 44.2326 16.4505 43.7439 15.4892L45.8714 12.1799C46.2513 11.5887 46.1678 10.8124 45.6711 10.3157L39.6843 4.32892C39.1876 3.83224 38.4113 3.7487 37.8201 4.12865L34.5108 6.2561C33.5495 5.76744 32.5516 5.35355 31.5285 5.01938L30.6931 1.17645C30.5439 0.489807 29.9358 0 29.2332 0H20.7668C20.0642 0 19.4561 0.489807 19.3069 1.17645L18.4715 5.01938C17.4484 5.35355 16.4505 5.76744 15.4892 6.2561L12.1799 4.12865C11.5887 3.7487 10.8124 3.83224 10.3157 4.32892L4.32892 10.3157C3.83224 10.8124 3.7487 11.5887 4.12865 12.1799L6.2561 15.4892C5.76744 16.4505 5.35355 17.4484 5.01938 18.4715L1.17645 19.3069C0.489807 19.4565 0 20.0642 0 20.7668V29.2332C0 29.9358 0.489807 30.5435 1.17645 30.6931L5.01938 31.5285C5.35355 32.5516 5.76744 33.5495 6.2561 34.5108L4.12865 37.8201C3.7487 38.4113 3.83224 39.1876 4.32892 39.6843L10.3157 45.6711C10.8124 46.1678 11.5887 46.2513 12.1799 45.8714L15.4892 43.7439C16.4505 44.2326 17.4484 44.6465 18.4715 44.9806L19.3069 48.8235C19.4561 49.5102 20.0642 50 20.7668 50H29.2332C29.9358 50 30.5439 49.5102 30.6931 48.8235L31.5285 44.9806C32.5516 44.6465 33.5495 44.2326 34.5108 43.7439L37.8201 45.8714C38.4113 46.2513 39.1876 46.1681 39.6843 45.6711L45.6711 39.6843C46.1678 39.1876 46.2513 38.4113 45.8714 37.8201L43.7439 34.5108C44.2326 33.5495 44.6465 32.5516 44.9806 31.5285L48.8235 30.6931C49.5102 30.5435 50 29.9358 50 29.2332V20.7668C50 20.0642 49.5102 19.4565 48.8235 19.3069ZM33.9642 25C33.9642 29.9427 29.9427 33.9642 25 33.9642C20.0573 33.9642 16.0358 29.9427 16.0358 25C16.0358 20.0573 20.0573 16.0358 25 16.0358C29.9427 16.0358 33.9642 20.0573 33.9642 25Z" fill="#F46524"/>
</svg>
